<svg width="33" height="49" viewBox="0 0 33 49" fill="none" xmlns="http://www.w3.org/2000/svg">
<path d="M32.2368 16.1184C32.2368 25.0204 17.7303 49 16.1184 49C14.5066 49 0 25.0204 0 16.1184C0 7.21646 7.21646 0 16.1184 0C25.0204 0 32.2368 7.21646 32.2368 16.1184Z" fill="#4F4F4F"/>
<path d="M29.0132 15.7961C29.0132 22.9176 21.2763 31.4309 16.1184 31.4309C10.9605 31.4309 3.22368 22.9176 3.22368 15.7961C3.22368 8.67449 8.99685 2.90132 16.1184 2.90132C23.24 2.90132 29.0132 8.67449 29.0132 15.7961Z" fill="#E0E0E0"/>
<path d="M20.3614 20.8508H20.9445L22.8882 23.5329H9.67105L11.6147 20.8508H12.1979M20.3614 20.8508V13.2171M20.3614 20.8508H12.1979M20.3614 13.2171L22.1107 11.5666L22.4994 8.0592H19.7782V9.91605H17.6402V8.0592H14.919V9.91605H12.781V8.0592H10.0598L10.4485 11.5666L12.1979 13.2171M20.3614 13.2171H12.1979M12.1979 13.2171V20.8508" stroke="#333333" stroke-width="1.5"/>
</svg>
